Coordinates
version=1
nRows=49
nColumns=12
inDegrees=yes

Units are S.I. units (second, meters, Newtons, ...)
Angles are in degrees

endheader
time	SC_y	SC_z	SC_x	AC_y	AC_z	AC_x	GH_y	GH_z	GH_yy	EL_x	PS_y
       0.0              -18.46          5.347          73.94          60.82         -3.913         -16.21         -170.9           56.4          157.9          119.9          129.3
 0.0006949              -18.47          5.349          73.93          60.81         -3.913         -16.21         -170.9           56.4          157.9          119.9          129.3
   0.00139              -18.47          5.352          73.93          60.81         -3.913         -16.21         -170.9          56.39          157.9          119.9          129.3
  0.002085              -18.47          5.354          73.93           60.8         -3.913          -16.2         -170.8          56.39          157.9          119.9          129.3
  0.002779              -18.48          5.357          73.93           60.8         -3.913          -16.2         -170.8          56.39          157.9          119.9          129.3
  0.003474              -18.48           5.36          73.92          60.79         -3.913          -16.2         -170.7          56.38          157.9          119.9          129.3
  0.004169              -18.48          5.363          73.92          60.79         -3.913         -16.19         -170.7          56.38          157.9          119.9          129.2
  0.004864              -18.49          5.366          73.92          60.78         -3.912         -16.19         -170.6          56.38          157.9          119.8          129.2
  0.005559              -18.49           5.37          73.91          60.77         -3.912         -16.18         -170.5          56.37          157.9          119.8          129.2
  0.006254               -18.5          5.374          73.91          60.77         -3.912         -16.18         -170.5          56.37          157.9          119.8          129.2
  0.006949               -18.5          5.378           73.9          60.76         -3.912         -16.17         -170.4          56.36          157.9          119.8          129.1
  0.007643              -18.51          5.382           73.9          60.75         -3.912         -16.17         -170.3          56.35          157.9          119.8          129.1
  0.008338              -18.51          5.387           73.9          60.74         -3.912         -16.16         -170.2          56.35          157.9          119.8          129.1
  0.009033              -18.52          5.392          73.89          60.73         -3.912         -16.16         -170.2          56.34          157.9          119.8          129.0
  0.009728              -18.52          5.397          73.88          60.72         -3.912         -16.15         -170.1          56.33          157.9          119.8          129.0
   0.01042              -18.53          5.403          73.88          60.71         -3.912         -16.14         -170.0          56.32          157.9          119.8          128.9
   0.01112              -18.54          5.409          73.87           60.7         -3.912         -16.13         -169.8          56.32          157.9          119.8          128.9
   0.01181              -18.55          5.416          73.86          60.68         -3.912         -16.12         -169.7          56.31          157.9          119.8          128.8
   0.01251              -18.56          5.424          73.86          60.67         -3.912         -16.11         -169.6           56.3          157.9          119.8          128.8
    0.0132              -18.57          5.433          73.85          60.65         -3.912          -16.1         -169.4          56.28          157.9          119.8          128.7
    0.0139              -18.58          5.442          73.84          60.63         -3.911         -16.09         -169.3          56.27          157.9          119.8          128.6
   0.01459              -18.59          5.452          73.83          60.62         -3.911         -16.08         -169.1          56.26          157.9          119.7          128.6
   0.01529               -18.6          5.463          73.82          60.59         -3.911         -16.06         -168.9          56.24          157.9          119.7          128.5
   0.01598              -18.62          5.476           73.8          60.57         -3.911         -16.05         -168.7          56.23          157.9          119.7          128.4
   0.01668              -18.63          5.489          73.79          60.54         -3.911         -16.03         -168.4          56.21          157.9          119.7          128.3
   0.01737              -18.65          5.505          73.77          60.51         -3.911         -16.01         -168.2          56.19          157.9          119.7          128.2
   0.01807              -18.67          5.522          73.76          60.48          -3.91         -15.99         -167.8          56.16          158.0          119.6          128.1
   0.01876               -18.7          5.541          73.74          60.44          -3.91         -15.96         -167.5          56.14          158.0          119.6          127.9
   0.01946              -18.72          5.563          73.71           60.4          -3.91         -15.94         -167.1          56.11          158.0          119.6          127.8
   0.02015              -18.75          5.588          73.69          60.35         -3.909         -15.91         -166.7          56.07          158.0          119.6          127.6
   0.02085              -18.78          5.617          73.66           60.3         -3.909         -15.87         -166.2          56.03          158.0          119.5          127.4
   0.02154              -18.82          5.649          73.63          60.23         -3.909         -15.83         -165.6          55.99          158.0          119.5          127.1
   0.02224              -18.87          5.687          73.59          60.16         -3.908         -15.78         -164.9          55.94          158.0          119.4          126.8
   0.02293              -18.92          5.731          73.54          60.07         -3.908         -15.72         -164.2          55.88          158.0          119.4          126.5
   0.02363              -18.98          5.782          73.49          59.97         -3.907         -15.66         -163.2          55.81          158.0          119.3          126.1
   0.02432              -19.05          5.842          73.43          59.86         -3.906         -15.58         -162.2          55.72          158.0          119.2          125.7
   0.02501              -19.14          5.914          73.36          59.72         -3.905         -15.49         -160.9          55.62          158.0          119.1          125.2
   0.02571              -19.24            6.0          73.27          59.55         -3.904         -15.38         -159.4          55.51          158.0          119.0          124.5
    0.0264              -19.37          6.104          73.16          59.35         -3.902         -15.25         -157.5          55.36          158.1          118.9          123.8
    0.0271              -19.52          6.231          73.03           59.1         -3.901         -15.09         -155.3          55.19          158.1          118.7          122.8
   0.02779               -19.7          6.388          72.87           58.8         -3.899         -14.89         -152.5          54.98          158.1          118.5          121.7
   0.02849              -19.94          6.583          72.67          58.42         -3.896         -14.64         -149.0          54.71          158.2          118.3          120.2
   0.02918              -20.23           6.83          72.42          57.94         -3.893         -14.33         -144.7          54.37          158.2          118.0          118.4
   0.02988               -20.6          7.143           72.1          57.33         -3.888         -13.93         -139.1          53.94          158.3          117.6          116.1
   0.03057              -21.08          7.544          71.69          56.55         -3.883         -13.42         -132.0          53.39          158.3          117.1          113.2
   0.03127              -21.69          8.058          71.17          55.55         -3.876         -12.76         -122.9          52.69          158.4          116.4          109.4
   0.03196              -22.48          8.715           70.5          54.27         -3.867         -11.93         -111.3          51.79          158.6          115.6          104.5
   0.03266              -23.46          9.541          69.65          52.67         -3.856         -10.88         -96.64          50.66          158.7          114.5          98.45
   0.03335              -24.66          10.55          68.62          50.71         -3.842         -9.598         -78.81          49.28          158.9          113.2          91.04
